<svg width="46" height="46" viewBox="0 0 46 46" fill="none" xmlns="http://www.w3.org/2000/svg">
<circle cx="23" cy="23" r="23" fill="#441FA3"/>
<path fill-rule="evenodd" clip-rule="evenodd" d="M28.769 23.3006C28.7908 21.6041 29.6802 20.0371 31.1256 19.1485C30.2096 17.8404 28.7305 17.0408 27.1344 16.9908C25.4552 16.8146 23.8272 17.9957 22.9715 17.9957C22.0992 17.9957 20.7817 17.0083 19.363 17.0375C17.4963 17.0978 15.7982 18.1334 14.8901 19.7654C12.9561 23.1138 14.3987 28.0349 16.2513 30.7415C17.1782 32.0668 18.2615 33.5473 19.6789 33.4948C21.066 33.4372 21.584 32.6103 23.2583 32.6103C24.9171 32.6103 25.4031 33.4948 26.8493 33.4614C28.3377 33.4372 29.2754 32.1302 30.1698 30.7923C30.8358 29.8479 31.3483 28.8042 31.6882 27.6997C29.9205 26.9521 28.7711 25.2199 28.769 23.3006Z" fill="white"/>
<path fill-rule="evenodd" clip-rule="evenodd" d="M26.0371 15.2108C26.8486 14.2366 27.2484 12.9844 27.1516 11.7202C25.9118 11.8504 24.7665 12.443 23.944 13.3798C23.1319 14.3041 22.7204 15.5134 22.8003 16.7412C24.0568 16.7542 25.2498 16.1901 26.0371 15.2108Z" fill="white"/>
</svg>
