<svg width="161" height="34" viewBox="0 0 161 34" fill="none" xmlns="http://www.w3.org/2000/svg">
<rect width="34" height="34" rx="12" fill="#1B5ECE"/>
<path fill-rule="evenodd" clip-rule="evenodd" d="M8.26623 13.9355C8.26623 15.7106 9.39244 16.992 10.9735 16.992C11.2875 16.992 11.5907 16.9365 11.8669 16.8366C11.3471 16.5815 10.9843 16.0323 10.9843 15.3999C10.9843 14.5235 11.6773 13.8079 12.5328 13.8079C12.9876 13.8079 13.3991 14.0076 13.6807 14.3293C13.6969 14.2017 13.7024 14.0686 13.7024 13.9355C13.7024 12.177 12.5328 10.9012 10.9735 10.9012C9.39244 10.9012 8.26623 12.177 8.26623 13.9355ZM5.92718 13.9355C5.92718 11.001 8.07131 8.6823 10.9735 8.6823C13.8973 8.6823 16.0414 11.001 16.0414 13.9355C16.0414 16.8921 13.8973 19.2053 10.9735 19.2053C8.028 19.2053 5.92718 16.8921 5.92718 13.9355ZM25.7376 13.9355C25.7376 12.177 24.5681 10.9012 23.0088 10.9012C21.4277 10.9012 20.2961 12.177 20.2961 13.9355C20.2961 15.7106 21.4277 16.992 23.0088 16.992C23.3228 16.992 23.626 16.9365 23.9021 16.8366C23.3769 16.5759 23.0196 16.0323 23.0196 15.3999C23.0196 14.5235 23.7126 13.8079 24.5681 13.8079C25.0229 13.8079 25.4344 14.0076 25.716 14.3293C25.7322 14.2017 25.7376 14.0686 25.7376 13.9355ZM28.0767 13.9355C28.0767 16.8921 25.9326 19.2053 23.0088 19.2053C20.0633 19.2053 17.9625 16.8921 17.9625 13.9355C17.9625 11.001 20.1012 8.6823 23.0088 8.6823C25.9326 8.6823 28.0767 11.001 28.0767 13.9355ZM14.7501 8.65124C14.9255 9.35462 15.6245 9.77898 16.3105 9.59925C16.9971 9.41897 17.4113 8.70338 17.2353 8L14.7501 8.65124ZM13.7034 20.7357H16.0425C16.0425 23.6868 13.8984 26 10.9746 26C8.02908 26 5.92285 23.6868 5.92285 20.7357H8.2619C8.2619 22.5053 9.39353 23.7811 10.9746 23.7811C12.5339 23.7811 13.7034 22.5053 13.7034 20.7357ZM28.0767 21.8446V23.6974C28.0767 24.2377 27.7486 24.5966 27.1801 24.5966C26.7052 24.5966 26.4491 24.3264 26.3587 23.983L26.7805 23.8943C26.8184 24.0829 26.9429 24.1988 27.1801 24.1988C27.4551 24.1988 27.6246 24.0252 27.6246 23.7013V23.4966L27.6208 23.4849C27.4925 23.643 27.3382 23.7512 27.0517 23.7512C26.6413 23.7512 26.3663 23.5043 26.3663 22.9407V21.8446H26.8184V22.8636C26.8184 23.2109 26.9689 23.3191 27.1952 23.3191C27.44 23.3191 27.6246 23.1532 27.6246 22.8287V21.8446H28.0767ZM25.1036 22.1725C24.7982 22.1725 24.6288 22.3849 24.5876 22.6046H25.5893C25.5779 22.431 25.4274 22.1725 25.1036 22.1725ZM24.5833 22.9602C24.6022 23.2031 24.8058 23.4428 25.1036 23.4428C25.3668 23.4428 25.5178 23.2802 25.5628 23.1493L25.9434 23.2691C25.834 23.5776 25.5628 23.825 25.1036 23.825C24.5649 23.825 24.1501 23.4 24.1501 22.8059C24.1501 22.2229 24.5649 21.7908 25.0998 21.7908C25.6461 21.7908 25.9883 22.1958 25.9883 22.7826V22.9602H24.5833ZM22.0964 21.8446H22.4695L22.5339 22.0759C22.6503 21.9178 22.8279 21.7908 23.1062 21.7908C23.5318 21.7908 23.7809 22.0415 23.7809 22.6046V23.7706H23.3287V22.6667C23.3287 22.3267 23.1739 22.2191 22.9633 22.2191C22.7332 22.2191 22.5485 22.3849 22.5485 22.7133V23.7706H22.0964V21.8446ZM21.2745 22.8059C21.2745 22.4659 21.0487 22.2191 20.7471 22.2191C20.4423 22.2191 20.2236 22.4659 20.2236 22.8059C20.2236 23.1493 20.4423 23.3962 20.7471 23.3962C21.0487 23.3962 21.2745 23.1493 21.2745 22.8059ZM19.7714 22.8059C19.7714 22.2385 20.1862 21.7908 20.7471 21.7908C21.3124 21.7908 21.7266 22.2385 21.7266 22.8059C21.7266 23.3767 21.3124 23.825 20.7471 23.825C20.1786 23.825 19.7714 23.3767 19.7714 22.8059ZM16.67 21.8446H17.0431L17.1032 22.0721C17.2164 21.9178 17.4156 21.7908 17.6836 21.7908C17.9663 21.7908 18.1168 21.9295 18.192 22.0798C18.309 21.9256 18.505 21.7908 18.7947 21.7908C19.145 21.7908 19.4011 22.0027 19.4011 22.497V23.7706H18.949V22.6245C18.949 22.3311 18.825 22.2191 18.629 22.2191C18.4216 22.2191 18.2635 22.3733 18.2635 22.6784V23.7706H17.8114V22.6245C17.8114 22.3311 17.676 22.2191 17.4876 22.2191C17.284 22.2191 17.1221 22.3694 17.1221 22.6784V23.7706H16.67V21.8446Z" fill="white"/>
<path fill-rule="evenodd" clip-rule="evenodd" d="M50.148 29.992C54.684 29.992 57.288 27.388 57.288 23.468V10.028H54.544L53.928 11.708C53.34 10.756 51.94 9.63599 49.7 9.63599C45.864 9.63599 43.064 12.744 43.064 16.776C43.064 20.836 45.808 23.888 49.728 23.888C51.856 23.888 53.312 22.852 53.928 21.816V23.524C53.928 25.876 52.5 27.136 50.148 27.136C48.188 27.136 47.152 26.184 46.816 24.756L43.68 25.456C44.38 28.032 46.396 29.992 50.148 29.992ZM50.204 20.864C48.02 20.864 46.424 19.268 46.424 16.776C46.424 14.256 47.992 12.66 50.176 12.66C52.332 12.66 53.928 14.256 53.928 16.776C53.928 19.268 52.36 20.864 50.204 20.864ZM74.264 17C74.264 21.144 71.184 24.392 66.984 24.392C62.756 24.392 59.732 21.144 59.732 17C59.732 12.884 62.812 9.63599 66.984 9.63599C71.184 9.63599 74.264 12.884 74.264 17ZM66.984 21.284C64.716 21.284 63.092 19.492 63.092 17C63.092 14.536 64.716 12.744 66.984 12.744C69.224 12.744 70.904 14.536 70.904 17C70.904 19.492 69.224 21.284 66.984 21.284ZM80.068 16.076V24H76.708V10.028H79.48L79.928 11.68C80.768 10.56 82.252 9.63599 84.24 9.63599C86.34 9.63599 87.46 10.644 88.02 11.736C88.888 10.616 90.344 9.63599 92.5 9.63599C95.104 9.63599 97.008 11.176 97.008 14.76V24H93.648V15.684C93.648 13.556 92.724 12.744 91.268 12.744C89.728 12.744 88.552 13.864 88.552 16.076V24H85.192V15.684C85.192 13.556 84.184 12.744 82.784 12.744C81.272 12.744 80.068 13.836 80.068 16.076ZM106.704 24.392C110.904 24.392 113.984 21.144 113.984 17C113.984 12.884 110.904 9.63599 106.704 9.63599C102.532 9.63599 99.452 12.884 99.452 17C99.452 21.144 102.476 24.392 106.704 24.392ZM102.812 17C102.812 19.492 104.436 21.284 106.704 21.284C108.944 21.284 110.624 19.492 110.624 17C110.624 14.536 108.944 12.744 106.704 12.744C104.436 12.744 102.812 14.536 102.812 17ZM119.788 24V16.328C119.788 13.948 121.16 12.744 122.868 12.744C124.436 12.744 125.584 13.528 125.584 15.992V24H128.944V15.544C128.944 11.456 127.096 9.63599 123.932 9.63599C121.86 9.63599 120.544 10.56 119.676 11.708L119.2 10.028H116.428V24H119.788ZM144.716 20.36C143.904 22.6 141.888 24.392 138.472 24.392C134.468 24.392 131.388 21.312 131.388 17C131.388 12.772 134.468 9.63599 138.444 9.63599C142.504 9.63599 145.052 12.576 145.052 16.832V18.12H134.608C134.748 19.884 136.26 21.62 138.472 21.62C140.432 21.62 141.552 20.444 141.888 19.492L144.716 20.36ZM142.084 15.544H134.636C134.944 13.948 136.204 12.408 138.472 12.408C140.88 12.408 142 14.284 142.084 15.544ZM160.264 23.468C160.264 27.388 157.828 29.992 153.6 29.992C150.072 29.992 148.168 28.032 147.496 25.54L150.632 24.896C150.912 26.268 151.836 27.108 153.6 27.108C155.644 27.108 156.904 25.848 156.904 23.496V22.012L156.876 21.928C155.924 23.076 154.776 23.86 152.648 23.86C149.596 23.86 147.552 22.068 147.552 17.98V10.028H150.912V17.42C150.912 19.94 152.032 20.724 153.712 20.724C155.532 20.724 156.904 19.52 156.904 17.168V10.028H160.264V23.468Z" fill="#0D2879"/>
</svg>
