<svg width="9" height="11" viewBox="0 0 9 11" fill="none" xmlns="http://www.w3.org/2000/svg">
<path fill-rule="evenodd" clip-rule="evenodd" d="M7.65 4.35417H7.3125V3.09375C7.3125 1.38512 5.95256 0 4.275 0C2.59744 0 1.2375 1.38512 1.2375 3.09375V4.35417H0.9C0.402943 4.35417 0 4.76457 0 5.27083V10.0833C0 10.5896 0.402944 11 0.9 11H7.65C8.14706 11 8.55 10.5896 8.55 10.0833V5.27083C8.55 4.76457 8.14706 4.35417 7.65 4.35417ZM4.275 8.47917C3.77794 8.47917 3.375 8.06876 3.375 7.5625C3.375 7.05624 3.77794 6.64583 4.275 6.64583C4.77206 6.64583 5.175 7.05624 5.175 7.5625C5.175 8.06876 4.77206 8.47917 4.275 8.47917ZM5.9625 4.35417C6.08676 4.35417 6.1875 4.25156 6.1875 4.125V3.09375C6.1875 2.01795 5.33124 1.14583 4.275 1.14583C3.21876 1.14583 2.3625 2.01795 2.3625 3.09375V4.125C2.3625 4.25156 2.46324 4.35417 2.5875 4.35417H5.9625Z" fill="#CECED1"/>
</svg>
