<svg width="46" height="46" viewBox="0 0 46 46" fill="none" xmlns="http://www.w3.org/2000/svg">
<circle cx="23" cy="23" r="23" fill="#441FA3"/>
<path fill-rule="evenodd" clip-rule="evenodd" d="M15.416 12.359C15.1276 12.705 14.9821 13.1479 15.009 13.5975V33.1652C14.9821 33.6148 15.1276 34.0577 15.416 34.4037L15.4779 34.4656L26.4383 23.514V23.2575L15.4779 12.2971L15.416 12.359Z" fill="url(#paint0_linear_0_225)"/>
<path fill-rule="evenodd" clip-rule="evenodd" d="M30.0649 27.1675L26.438 23.5141V23.2575L30.0649 19.5952L30.1445 19.6394L34.488 22.1075C35.7264 22.8064 35.7264 23.9564 34.488 24.6641L30.1622 27.1233L30.0649 27.1675Z" fill="url(#paint1_linear_0_225)"/>
<path fill-rule="evenodd" clip-rule="evenodd" d="M30.1709 27.1144L26.4378 23.3813L15.4155 34.4037C15.9363 34.8615 16.7092 34.8838 17.2555 34.4567L30.1798 27.1144" fill="url(#paint2_linear_0_225)"/>
<path fill-rule="evenodd" clip-rule="evenodd" d="M30.171 19.6482L17.2467 12.3059C16.7004 11.8788 15.9275 11.9011 15.4067 12.359L26.4379 23.3813L30.171 19.6482Z" fill="url(#paint3_linear_0_225)"/>
<path opacity="0.2" fill-rule="evenodd" clip-rule="evenodd" d="M30.0648 27.0347L17.2467 34.3327C16.7221 34.7249 16.002 34.7249 15.4775 34.3327L15.4155 34.3947L15.4775 34.4566C16.001 34.8517 16.7231 34.8517 17.2467 34.4566L30.1709 27.1143L30.0648 27.0347Z" fill="black"/>
<path opacity="0.12" fill-rule="evenodd" clip-rule="evenodd" d="M30.0652 27.0348L34.4883 24.5313C34.9453 24.3057 35.2721 23.881 35.3729 23.3813C35.3273 23.9337 34.9899 24.4195 34.4883 24.6552L30.1448 27.1144L30.0652 27.0348ZM15.0071 33.2136C15.0217 33.6028 15.1645 33.9781 15.416 34.2798L15.4779 34.3506L15.416 34.4125C15.1361 34.0767 14.9907 33.6495 15.0071 33.2136ZM15.0071 33.2136C15.0076 33.2004 15.0082 33.1872 15.009 33.174V33.0413C15.0056 33.0989 15.005 33.1564 15.0071 33.2136Z" fill="black"/>
<path opacity="0.25" fill-rule="evenodd" clip-rule="evenodd" d="M17.2469 12.4298L34.4881 22.2313C34.9452 22.4569 35.2719 22.8816 35.3727 23.3813C35.3271 22.8289 34.9897 22.3431 34.4881 22.1074L17.2469 12.3059C16.0085 11.6071 15 12.1909 15 13.6063V13.739C15.0265 12.3148 16.0173 11.7309 17.2469 12.4298Z" fill="white"/>
<defs>
<linearGradient id="paint0_linear_0_225" x1="21.6377" y1="-0.997741" x2="4.08739" y2="3.66979" gradientUnits="userSpaceOnUse">
<stop stop-color="#00A0FF"/>
<stop offset="0.01" stop-color="#00A1FF"/>
<stop offset="0.26" stop-color="#00BEFF"/>
<stop offset="0.51" stop-color="#00D2FF"/>
<stop offset="0.76" stop-color="#00DFFF"/>
<stop offset="1" stop-color="#00E3FF"/>
</linearGradient>
<linearGradient id="paint1_linear_0_225" x1="36.1068" y1="14.358" x2="14.708" y2="14.358" gradientUnits="userSpaceOnUse">
<stop stop-color="#FFE000"/>
<stop offset="0.41" stop-color="#FFBD00"/>
<stop offset="0.78" stop-color="#FFA500"/>
<stop offset="1" stop-color="#FF9C00"/>
</linearGradient>
<linearGradient id="paint2_linear_0_225" x1="15.0917" y1="17.6557" x2="0.994037" y2="41.3692" gradientUnits="userSpaceOnUse">
<stop stop-color="#FF3A44"/>
<stop offset="1" stop-color="#C31162"/>
</linearGradient>
<linearGradient id="paint3_linear_0_225" x1="6.80829" y1="9.31234" x2="13.1008" y2="19.9016" gradientUnits="userSpaceOnUse">
<stop stop-color="#32A071"/>
<stop offset="0.07" stop-color="#2DA771"/>
<stop offset="0.48" stop-color="#15CF74"/>
<stop offset="0.8" stop-color="#06E775"/>
<stop offset="1" stop-color="#00F076"/>
</linearGradient>
</defs>
</svg>
