<svg width="21" height="23" viewBox="0 0 21 23" fill="none" xmlns="http://www.w3.org/2000/svg">
<path fill-rule="evenodd" clip-rule="evenodd" d="M0.415951 0.359042C0.127624 0.705023 -0.0179051 1.14794 0.00902825 1.5975V21.1652C-0.0179051 21.6148 0.127624 22.0577 0.415951 22.4037L0.477874 22.4656L11.4383 11.514V11.2575L0.477874 0.297119L0.415951 0.359042Z" fill="url(#paint0_linear_1106_4042)"/>
<path fill-rule="evenodd" clip-rule="evenodd" d="M15.0649 15.1675L11.438 11.5141V11.2575L15.0649 7.59521L15.1445 7.63945L19.488 10.1075C20.7264 10.8064 20.7264 11.9564 19.488 12.6641L15.1622 15.1233L15.0649 15.1675Z" fill="url(#paint1_linear_1106_4042)"/>
<path fill-rule="evenodd" clip-rule="evenodd" d="M15.1709 15.1144L11.4378 11.3813L0.415527 22.4037C0.936316 22.8615 1.70921 22.8838 2.25553 22.4567L15.1798 15.1144" fill="url(#paint2_linear_1106_4042)"/>
<path fill-rule="evenodd" clip-rule="evenodd" d="M15.171 7.64818L2.24674 0.305876C1.70043 -0.12115 0.927527 -0.098855 0.406738 0.358953L11.4379 11.3813L15.171 7.64818Z" fill="url(#paint3_linear_1106_4042)"/>
<path opacity="0.25" fill-rule="evenodd" clip-rule="evenodd" d="M2.24692 0.429754L19.4881 10.2313C19.9452 10.4569 20.2719 10.8816 20.3727 11.3813C20.3271 10.8289 19.9897 10.3431 19.4881 10.1074L2.24692 0.305908C1.00846 -0.392939 0 0.190908 0 1.60629V1.73898C0.0265385 0.314754 1.01731 -0.269092 2.24692 0.429754Z" fill="white"/>
<defs>
<linearGradient id="paint0_linear_1106_4042" x1="6.63765" y1="-12.9977" x2="-10.9126" y2="-8.33021" gradientUnits="userSpaceOnUse">
<stop stop-color="#00A0FF"/>
<stop offset="0.01" stop-color="#00A1FF"/>
<stop offset="0.26" stop-color="#00BEFF"/>
<stop offset="0.51" stop-color="#00D2FF"/>
<stop offset="0.76" stop-color="#00DFFF"/>
<stop offset="1" stop-color="#00E3FF"/>
</linearGradient>
<linearGradient id="paint1_linear_1106_4042" x1="21.1068" y1="2.35801" x2="-0.292012" y2="2.35801" gradientUnits="userSpaceOnUse">
<stop stop-color="#FFE000"/>
<stop offset="0.41" stop-color="#FFBD00"/>
<stop offset="0.78" stop-color="#FFA500"/>
<stop offset="1" stop-color="#FF9C00"/>
</linearGradient>
<linearGradient id="paint2_linear_1106_4042" x1="0.0916614" y1="5.6557" x2="-14.006" y2="29.3692" gradientUnits="userSpaceOnUse">
<stop stop-color="#FF3A44"/>
<stop offset="1" stop-color="#C31162"/>
</linearGradient>
<linearGradient id="paint3_linear_1106_4042" x1="-8.19171" y1="-2.68766" x2="-1.89918" y2="7.9016" gradientUnits="userSpaceOnUse">
<stop stop-color="#32A071"/>
<stop offset="0.07" stop-color="#2DA771"/>
<stop offset="0.48" stop-color="#15CF74"/>
<stop offset="0.8" stop-color="#06E775"/>
<stop offset="1" stop-color="#00F076"/>
</linearGradient>
</defs>
</svg>
