<svg width="19" height="23" viewBox="0 0 19 23" fill="none" xmlns="http://www.w3.org/2000/svg">
<path fill-rule="evenodd" clip-rule="evenodd" d="M15.769 12.3006C15.7908 10.6041 16.6802 9.03708 18.1256 8.14851C17.2096 6.84041 15.7305 6.04077 14.1344 5.99083C12.4552 5.81457 10.8272 6.99566 9.97149 6.99566C9.09922 6.99566 7.78172 6.00833 6.36299 6.03752C4.49631 6.09783 2.79825 7.13342 1.89007 8.76539C-0.0439278 12.1138 1.39866 17.0349 3.25127 19.7415C4.17817 21.0668 5.26145 22.5473 6.6789 22.4948C8.06596 22.4372 8.584 21.6103 10.2583 21.6103C11.9171 21.6103 12.4031 22.4948 13.8493 22.4614C15.3377 22.4372 16.2754 21.1302 17.1698 19.7923C17.8358 18.8479 18.3483 17.8042 18.6882 16.6997C16.9205 15.9521 15.7711 14.2199 15.769 12.3006Z" fill="#441FA3"/>
<path fill-rule="evenodd" clip-rule="evenodd" d="M13.0376 4.21083C13.8491 3.23663 14.2489 1.98445 14.1521 0.720215C12.9123 0.850435 11.767 1.44299 10.9445 2.37982C10.1323 3.30413 9.72091 4.51338 9.80081 5.74121C11.0573 5.75415 12.2502 5.1901 13.0376 4.21083Z" fill="#441FA3"/>
</svg>
