<svg width="32" height="32" viewBox="0 0 32 32" fill="none" xmlns="http://www.w3.org/2000/svg">
<rect width="32" height="32" rx="12" fill="#15777C"/>
<path fill-rule="evenodd" clip-rule="evenodd" d="M7.34338 12.9355C7.34338 14.7106 8.46959 15.992 10.0506 15.992C10.3647 15.992 10.6679 15.9365 10.944 15.8366C10.4242 15.5815 10.0614 15.0323 10.0614 14.3999C10.0614 13.5235 10.7545 12.8079 11.61 12.8079C12.0648 12.8079 12.4763 13.0076 12.7579 13.3293C12.7741 13.2017 12.7795 13.0686 12.7795 12.9355C12.7795 11.177 11.61 9.90117 10.0506 9.90117C8.46959 9.90117 7.34338 11.177 7.34338 12.9355ZM5.00433 12.9355C5.00433 10.001 7.14846 7.6823 10.0506 7.6823C12.9744 7.6823 15.1186 10.001 15.1186 12.9355C15.1186 15.8921 12.9744 18.2053 10.0506 18.2053C7.10515 18.2053 5.00433 15.8921 5.00433 12.9355ZM24.8148 12.9355C24.8148 11.177 23.6453 9.90117 22.0859 9.90117C20.5049 9.90117 19.3733 11.177 19.3733 12.9355C19.3733 14.7106 20.5049 15.992 22.0859 15.992C22.3999 15.992 22.7032 15.9365 22.9793 15.8366C22.4541 15.5759 22.0967 15.0323 22.0967 14.3999C22.0967 13.5235 22.7898 12.8079 23.6453 12.8079C24.1001 12.8079 24.5116 13.0076 24.7931 13.3293C24.8094 13.2017 24.8148 13.0686 24.8148 12.9355ZM27.1538 12.9355C27.1538 15.8921 25.0097 18.2053 22.0859 18.2053C19.1404 18.2053 17.0396 15.8921 17.0396 12.9355C17.0396 10.001 19.1783 7.6823 22.0859 7.6823C25.0097 7.6823 27.1538 10.001 27.1538 12.9355ZM13.8272 7.65124C14.0026 8.35462 14.7016 8.77898 15.3877 8.59925C16.0742 8.41897 16.4884 7.70338 16.3125 7L13.8272 7.65124ZM12.7806 19.7357H15.1196C15.1196 22.6868 12.9755 25 10.0517 25C7.10623 25 5 22.6868 5 19.7357H7.33905C7.33905 21.5053 8.47068 22.7811 10.0517 22.7811C11.6111 22.7811 12.7806 21.5053 12.7806 19.7357ZM27.1538 20.8446V22.6974C27.1538 23.2377 26.8257 23.5966 26.2572 23.5966C25.7824 23.5966 25.5263 23.3264 25.4358 22.983L25.8576 22.8943C25.8955 23.0829 26.0201 23.1988 26.2572 23.1988C26.5323 23.1988 26.7017 23.0252 26.7017 22.7013V22.4966L26.698 22.4849C26.5696 22.643 26.4153 22.7512 26.1289 22.7512C25.7185 22.7512 25.4434 22.5043 25.4434 21.9407V20.8446H25.8955V21.8636C25.8955 22.2109 26.046 22.3191 26.2724 22.3191C26.5171 22.3191 26.7017 22.1532 26.7017 21.8287V20.8446H27.1538ZM24.1808 21.1725C23.8754 21.1725 23.7059 21.3849 23.6648 21.6046H24.6664C24.6551 21.431 24.5045 21.1725 24.1808 21.1725ZM23.6604 21.9602C23.6794 22.2031 23.883 22.4428 24.1808 22.4428C24.4439 22.4428 24.595 22.2802 24.6399 22.1493L25.0205 22.2691C24.9112 22.5776 24.6399 22.825 24.1808 22.825C23.642 22.825 23.2273 22.4 23.2273 21.8059C23.2273 21.2229 23.642 20.7908 24.177 20.7908C24.7233 20.7908 25.0655 21.1958 25.0655 21.7826V21.9602H23.6604ZM21.1736 20.8446H21.5466L21.6111 21.0759C21.7275 20.9178 21.9051 20.7908 22.1834 20.7908C22.6089 20.7908 22.858 21.0415 22.858 21.6046V22.7706H22.4059V21.6667C22.4059 21.3267 22.251 21.2191 22.0404 21.2191C21.8103 21.2191 21.6257 21.3849 21.6257 21.7133V22.7706H21.1736V20.8446ZM20.3516 21.8059C20.3516 21.4659 20.1259 21.2191 19.8243 21.2191C19.5194 21.2191 19.3007 21.4659 19.3007 21.8059C19.3007 22.1493 19.5194 22.3962 19.8243 22.3962C20.1259 22.3962 20.3516 22.1493 20.3516 21.8059ZM18.8486 21.8059C18.8486 21.2385 19.2633 20.7908 19.8243 20.7908C20.3895 20.7908 20.8038 21.2385 20.8038 21.8059C20.8038 22.3767 20.3895 22.825 19.8243 22.825C19.2558 22.825 18.8486 22.3767 18.8486 21.8059ZM15.7472 20.8446H16.1202L16.1803 21.0721C16.2935 20.9178 16.4928 20.7908 16.7608 20.7908C17.0434 20.7908 17.1939 20.9295 17.2692 21.0798C17.3861 20.9256 17.5821 20.7908 17.8718 20.7908C18.2221 20.7908 18.4782 21.0027 18.4782 21.497V22.7706H18.0261V21.6245C18.0261 21.3311 17.9021 21.2191 17.7061 21.2191C17.4988 21.2191 17.3407 21.3733 17.3407 21.6784V22.7706H16.8886V21.6245C16.8886 21.3311 16.7532 21.2191 16.5648 21.2191C16.3612 21.2191 16.1993 21.3694 16.1993 21.6784V22.7706H15.7472V20.8446Z" fill="white"/>
</svg>
