<svg width="36" height="36" viewBox="0 0 36 36" fill="none" xmlns="http://www.w3.org/2000/svg">
<rect width="36" height="36" rx="12" fill="#15777C"/>
<path fill-rule="evenodd" clip-rule="evenodd" d="M8.2613 14.5524C8.2613 16.5494 9.52829 17.991 11.3069 17.991C11.6602 17.991 12.0013 17.9285 12.312 17.8162C11.7272 17.5291 11.3191 16.9113 11.3191 16.1999C11.3191 15.2139 12.0988 14.4089 13.0612 14.4089C13.5729 14.4089 14.0358 14.6335 14.3526 14.9955C14.3709 14.8519 14.3769 14.7022 14.3769 14.5524C14.3769 12.5741 13.0612 11.1388 11.3069 11.1388C9.52829 11.1388 8.2613 12.5741 8.2613 14.5524V14.5524ZM5.62987 14.5524C5.62987 11.2511 8.04202 8.64259 11.3069 8.64259C14.5962 8.64259 17.0084 11.2511 17.0084 14.5524C17.0084 17.8786 14.5962 20.4809 11.3069 20.4809C7.99329 20.4809 5.62987 17.8786 5.62987 14.5524V14.5524ZM27.9166 14.5524C27.9166 12.5741 26.6009 11.1388 24.8466 11.1388C23.068 11.1388 21.7949 12.5741 21.7949 14.5524C21.7949 16.5494 23.068 17.991 24.8466 17.991C25.1999 17.991 25.541 17.9285 25.8517 17.8162C25.2608 17.5229 24.8588 16.9113 24.8588 16.1999C24.8588 15.2139 25.6385 14.4089 26.6009 14.4089C27.1126 14.4089 27.5755 14.6335 27.8923 14.9955C27.9106 14.8519 27.9166 14.7022 27.9166 14.5524V14.5524ZM30.5481 14.5524C30.5481 17.8786 28.1359 20.4809 24.8466 20.4809C21.533 20.4809 19.1696 17.8786 19.1696 14.5524C19.1696 11.2511 21.5756 8.64259 24.8466 8.64259C28.1359 8.64259 30.5481 11.2511 30.5481 14.5524V14.5524ZM15.5556 8.60764C15.753 9.39895 16.5394 9.87635 17.3111 9.67415C18.0835 9.47134 18.5495 8.6663 18.3515 7.875L15.5556 8.60764ZM14.3782 22.2027H17.0096C17.0096 25.5227 14.5975 28.125 11.3082 28.125C7.99451 28.125 5.625 25.5227 5.625 22.2027H8.25643C8.25643 24.1934 9.52951 25.6288 11.3082 25.6288C13.0625 25.6288 14.3782 24.1934 14.3782 22.2027V22.2027ZM30.5481 23.4502V25.5345C30.5481 26.1424 30.1789 26.5461 29.5394 26.5461C29.0052 26.5461 28.717 26.2422 28.6153 25.8559L29.0898 25.7561C29.1325 25.9683 29.2726 26.0987 29.5394 26.0987C29.8488 26.0987 30.0395 25.9034 30.0395 25.5389V25.3086L30.0352 25.2955C29.8908 25.4734 29.7172 25.5951 29.395 25.5951C28.9333 25.5951 28.6238 25.3174 28.6238 24.6833V23.4502H29.1325V24.5966C29.1325 24.9872 29.3018 25.1089 29.5564 25.1089C29.8317 25.1089 30.0395 24.9223 30.0395 24.5573V23.4502H30.5481ZM27.2034 23.819C26.8598 23.819 26.6691 24.058 26.6229 24.3052H27.7497C27.737 24.1098 27.5676 23.819 27.2034 23.819V23.819ZM26.618 24.7052C26.6393 24.9785 26.8683 25.2481 27.2034 25.2481C27.4994 25.2481 27.6693 25.0653 27.7199 24.918L28.1481 25.0528C28.0251 25.3997 27.7199 25.6781 27.2034 25.6781C26.5973 25.6781 26.1307 25.2 26.1307 24.5317C26.1307 23.8758 26.5973 23.3897 27.1991 23.3897C27.8137 23.3897 28.1987 23.8452 28.1987 24.5055V24.7052H26.618ZM23.8203 23.4502H24.2399L24.3124 23.7104C24.4434 23.5326 24.6432 23.3897 24.9563 23.3897C25.4351 23.3897 25.7153 23.6717 25.7153 24.3052V25.6169H25.2066V24.375C25.2066 23.9925 25.0324 23.8714 24.7955 23.8714C24.5366 23.8714 24.3289 24.058 24.3289 24.4275V25.6169H23.8203V23.4502ZM22.8956 24.5317C22.8956 24.1491 22.6416 23.8714 22.3023 23.8714C21.9594 23.8714 21.7133 24.1491 21.7133 24.5317C21.7133 24.918 21.9594 25.1957 22.3023 25.1957C22.6416 25.1957 22.8956 24.918 22.8956 24.5317V24.5317ZM21.2047 24.5317C21.2047 23.8933 21.6713 23.3897 22.3023 23.3897C22.9382 23.3897 23.4042 23.8933 23.4042 24.5317C23.4042 25.1738 22.9382 25.6781 22.3023 25.6781C21.6627 25.6781 21.2047 25.1738 21.2047 24.5317V24.5317ZM17.7156 23.4502H18.1353L18.2029 23.7061C18.3302 23.5326 18.5544 23.3897 18.8559 23.3897C19.1738 23.3897 19.3432 23.5457 19.4278 23.7148C19.5594 23.5413 19.7799 23.3897 20.1058 23.3897C20.4999 23.3897 20.788 23.6281 20.788 24.1841V25.6169H20.2794V24.3276C20.2794 23.9975 20.1399 23.8714 19.9194 23.8714C19.6861 23.8714 19.5082 24.0449 19.5082 24.3882V25.6169H18.9996V24.3276C18.9996 23.9975 18.8473 23.8714 18.6354 23.8714C18.4063 23.8714 18.2242 24.0406 18.2242 24.3882V25.6169H17.7156V23.4502Z" fill="white"/>
</svg>
