<svg xmlns="http://www.w3.org/2000/svg" xmlns:xlink="http://www.w3.org/1999/xlink" width="61" height="61" viewBox="0 0 61 61">
    <defs>
        <path id="0sllg3yzca" d="M21.93 0h16.728c7.625 0 10.39.794 13.178 2.285 2.788 1.49 4.976 3.679 6.467 6.467 1.491 2.787 2.285 5.553 2.285 13.178v16.728c0 7.625-.794 10.39-2.285 13.178-1.49 2.788-3.679 4.976-6.467 6.467-2.787 1.491-5.553 2.285-13.178 2.285H21.93c-7.625 0-10.39-.794-13.178-2.285-2.788-1.49-4.976-3.679-6.467-6.467C.794 49.05 0 46.283 0 38.658V21.93c0-7.625.794-10.39 2.285-13.178 1.49-2.788 3.679-4.976 6.467-6.467C11.539.794 14.305 0 21.93 0z"/>
        <path id="tcmvx82lcc" d="M13.366 0H45.31c4.648 0 6.333.484 8.032 1.393 1.7.908 3.033 2.242 3.942 3.941.908 1.7 1.392 3.385 1.392 8.032V45.31c0 4.648-.484 6.333-1.392 8.032-.91 1.7-2.243 3.033-3.942 3.942-1.699.908-3.384 1.392-8.032 1.392H13.366c-4.647 0-6.333-.484-8.032-1.392-1.7-.91-3.033-2.243-3.941-3.942C.483 51.643 0 49.958 0 45.31V13.366C0 8.72.484 7.033 1.393 5.334c.908-1.7 2.242-3.033 3.941-3.941C7.034.483 8.719 0 13.366 0z"/>
    </defs>
    <g fill="none" fill-rule="evenodd">
        <g>
            <g>
                <g>
                    <g>
                        <g>
                            <g>
                                <g fill="#000" fill-rule="nonzero">
                                    <path d="M21.93 0h16.728c7.625 0 10.39.794 13.178 2.285 2.788 1.49 4.976 3.679 6.467 6.467 1.491 2.787 2.285 5.553 2.285 13.178v16.728c0 7.625-.794 10.39-2.285 13.178-1.49 2.788-3.679 4.976-6.467 6.467-2.787 1.491-5.553 2.285-13.178 2.285H21.93c-7.625 0-10.39-.794-13.178-2.285-2.788-1.49-4.976-3.679-6.467-6.467C.794 49.05 0 46.283 0 38.658V21.93c0-7.625.794-10.39 2.285-13.178 1.49-2.788 3.679-4.976 6.467-6.467C11.539.794 14.305 0 21.93 0z" transform="translate(-80 -50) translate(80 50)"/>
                                </g>
                                <g fill="#091536">
                                    <path d="M21.93 0h16.728c7.625 0 10.39.794 13.178 2.285 2.788 1.49 4.976 3.679 6.467 6.467 1.491 2.787 2.285 5.553 2.285 13.178v16.728c0 7.625-.794 10.39-2.285 13.178-1.49 2.788-3.679 4.976-6.467 6.467-2.787 1.491-5.553 2.285-13.178 2.285H21.93c-7.625 0-10.39-.794-13.178-2.285-2.788-1.49-4.976-3.679-6.467-6.467C.794 49.05 0 46.283 0 38.658V21.93c0-7.625.794-10.39 2.285-13.178 1.49-2.788 3.679-4.976 6.467-6.467C11.539.794 14.305 0 21.93 0z" transform="translate(-80 -50) translate(80 50)"/>
                                </g>
                            </g>
                            <g transform="translate(-80 -50) translate(80 50)">
                                <mask id="vh80ar6uab" fill="#fff">
                                    <use xlink:href="#0sllg3yzca"/>
                                </mask>
                                <g mask="url(#vh80ar6uab)">
                                    <g>
                                        <g transform="matrix(0 -1 -1 0 66.232 52.52) translate(.003 -.003)">
                                            <mask id="4bf3zu21td" fill="#fff">
                                                <use xlink:href="#tcmvx82lcc"/>
                                            </mask>
                                            <g mask="url(#4bf3zu21td)">
                                                <g>
                                                    <path fill="#0C2878" fill-rule="nonzero" d="M55.976 7.312C56 8.607 66.96 24.032 65.727 33.125c-.678 5.135-23.644 8.624-23.573 10.191.111 2.482 6.357 1.618 12.298.258 4.472-1.024 8.92-2.195 9.615-3.173.53-.09-.308 9.934-1.392 10.645-.884.58-5.455 1.383-10.32 1.774-6.066.488-12.14-.045-12.394.846-.413 1.447 6.461 2.206 7.157 2.503.696.297 3.853 1.736 5.818 1.804 1.964.068 7.86.376 8.558.776 0 0-1.094.69-1.434.953-1.674 1.294-6.296 5.63-6.296 5.63s-4.783-.547-9.45-1.86c-4.668-1.313-8.988-2.547-9.14-1.884-.293 1.294 7.449 3.958 9.84 3.899 2.408-.061 4.552-.611 4.606-.624-.068.095-4.417 6.223-10.207 6.326-5.836.104-6.582-2.04-7.612-2.272-1.03-.23-4.005-1.486-4.219-2.604-.214-1.118-.103-5.484-.103-5.484L55.976 7.312zm-.032 0L27.44 60.779s-3.601 2.607-4.663 3.082c-1.063.476-3.834-1.157-4.623-1.84-.788-.685-3.02-.039-6.3-4.725s-.576-11.744-.576-11.744.778 2.044 2.133 4.013c1.33 1.93 8.035 6.531 8.952 5.551.47-.502-3.06-3.215-6.856-6.158-3.795-2.943-7.014-6.42-7.014-6.42s.974-6.164 1.095-8.237c.025-.421-.027-1.688-.027-1.688.739.323 4.399 4.82 5.59 6.337 1.19 1.518 4.221 3.191 4.872 3.571.65.38 5.254 5.392 6.231 4.23.602-.714-3.35-5.222-6.44-10.313-2.478-4.082-4.441-8.17-4.465-9.205-.029-1.27 7.906-7.717 8.137-7.245-.421 1.114 1.163 5.317 2.884 9.453 2.285 5.494 5.162 10.944 7.312 9.6 1.356-.847-8.965-21.066-5.044-24.568C35.564 8.25 54.842 8.04 55.944 7.312z" transform="rotate(176 36.102 32.076) rotate(18 37.159 39.252)"/>
                                                </g>
                                            </g>
                                        </g>
                                    </g>
                                </g>
                            </g>
                        </g>
                        <path fill="#FFF" fill-rule="nonzero" d="M15.032 25.228c0 3.1 2.005 5.338 4.82 5.338.559 0 1.098-.097 1.59-.272-.925-.445-1.571-1.404-1.571-2.509 0-1.53 1.234-2.78 2.757-2.78.81 0 1.542.349 2.043.91.029-.222.039-.455.039-.687 0-3.072-2.082-5.3-4.859-5.3-2.814 0-4.82 2.228-4.82 5.3zm-4.164 0c0-5.125 3.817-9.175 8.983-9.175 5.206 0 9.023 4.05 9.023 9.175 0 5.163-3.817 9.203-9.023 9.203-5.243 0-8.983-4.04-8.983-9.203zm35.267 0c0-3.072-2.082-5.3-4.858-5.3-2.814 0-4.829 2.228-4.829 5.3 0 3.1 2.015 5.338 4.83 5.338.558 0 1.098-.097 1.59-.272-.935-.455-1.571-1.404-1.571-2.509 0-1.53 1.233-2.78 2.756-2.78.81 0 1.543.349 2.044.91.029-.222.038-.455.038-.687zm4.164 0c0 5.163-3.817 9.203-9.022 9.203-5.243 0-8.983-4.04-8.983-9.203 0-5.125 3.807-9.175 8.983-9.175 5.205 0 9.022 4.05 9.022 9.175zm-23.724-9.23c.312 1.23 1.556 1.97 2.778 1.656 1.222-.315 1.96-1.564 1.646-2.793L26.575 16zm-1.863 21.106h4.164c0 5.154-3.817 9.194-9.023 9.194-5.243 0-8.993-4.04-8.993-9.194h4.164c0 3.09 2.015 5.32 4.83 5.32 2.775 0 4.858-2.23 4.858-5.32zm25.587 1.937v3.236c0 .943-.584 1.57-1.596 1.57-.845 0-1.301-.472-1.462-1.071l.75-.155c.068.33.29.532.712.532.49 0 .792-.304.792-.87v-.357l-.007-.02c-.229.276-.503.465-1.013.465-.73 0-1.22-.431-1.22-1.416v-1.914h.804v1.78c0 .606.268.795.671.795.436 0 .765-.29.765-.856V39.04h.804zm-5.292.573c-.544 0-.846.37-.919.754h1.783c-.02-.303-.288-.754-.864-.754zm-.927 1.375c.034.425.396.843.927.843.468 0 .737-.284.817-.512l.678.209c-.195.539-.678.97-1.495.97-.96 0-1.698-.741-1.698-1.78 0-1.017.739-1.772 1.69-1.772.973 0 1.583.707 1.583 1.732v.31H44.08zm-4.427-1.948h.664l.115.404c.207-.276.523-.498 1.019-.498.757 0 1.2.438 1.2 1.421v2.037h-.804v-1.928c0-.594-.276-.782-.65-.782-.41 0-.74.29-.74.863v1.847h-.804V39.04zM38.19 40.72c0-.594-.402-1.025-.939-1.025-.543 0-.932.431-.932 1.025 0 .6.39 1.03.932 1.03.537 0 .939-.43.939-1.03zm-2.676 0c0-.991.738-1.773 1.737-1.773 1.006 0 1.744.782 1.744 1.773 0 .997-.738 1.78-1.744 1.78-1.012 0-1.737-.783-1.737-1.78zm-5.521-1.679h.664l.107.397c.201-.27.556-.491 1.033-.491.503 0 .771.242.905.505.209-.27.557-.505 1.073-.505.624 0 1.08.37 1.08 1.233v2.225h-.805v-2.002c0-.512-.22-.708-.57-.708-.369 0-.65.27-.65.802v1.908h-.805v-2.002c0-.512-.241-.708-.577-.708-.362 0-.65.262-.65.802v1.908h-.805V39.04z" transform="translate(-80 -50) translate(80 50)"/>
                    </g>
                </g>
            </g>
        </g>
    </g>
</svg>
