<svg xmlns="http://www.w3.org/2000/svg" xmlns:xlink="http://www.w3.org/1999/xlink" width="152" height="133" viewBox="0 0 152 133">
    <defs>
        <path id="4bah4uf65a" d="M22.154 22.071c12.235 0 22.154-9.881 22.154-22.071H0c0 12.19 9.919 22.071 22.154 22.071z"/>
    </defs>
    <g fill="none" fill-rule="evenodd">
        <g>
            <g transform="translate(-112 -107) rotate(-15 589.341 -358.437)">
                <ellipse cx="115.692" cy="50.274" fill="#9D7452" fill-rule="nonzero" rx="12.308" ry="12.262"/>
                <path fill="#453128" fill-rule="nonzero" d="M120.976 45.728c.48-.479 1.26-.479 1.74 0 .437.436.477 1.117.12 1.597l-.12.137-12.307 12.262c-.48.479-1.26.479-1.74 0-.438-.435-.477-1.116-.12-1.596l.12-.138 12.307-12.262z"/>
                <ellipse cx="12.308" cy="50.274" fill="#9D7452" fill-rule="nonzero" rx="12.308" ry="12.262"/>
                <path fill="#453128" fill-rule="nonzero" d="M18.822 45.728c.48-.479 1.26-.479 1.74 0 .438.436.477 1.117.12 1.597l-.12.137L8.256 59.724c-.48.479-1.26.479-1.74 0-.438-.435-.477-1.116-.12-1.596l.12-.138 12.307-12.262z" transform="matrix(-1 0 0 1 27.077 0)"/>
                <ellipse cx="64" cy="51.5" fill="#9D7452" fill-rule="nonzero" rx="51.692" ry="51.5"/>
                <path fill="#000" fill-rule="nonzero" d="M42.308 30.655c9.558 0 17.307 7.72 17.307 17.243s-7.749 17.243-17.307 17.243c-9.56 0-17.308-7.72-17.308-17.243s7.749-17.243 17.308-17.243zm0 1.916c-8.497 0-15.385 6.862-15.385 15.327s6.888 15.327 15.385 15.327c8.496 0 15.384-6.862 15.384-15.327s-6.888-15.327-15.384-15.327zM89.423 30.655c9.559 0 17.308 7.72 17.308 17.243s-7.75 17.243-17.308 17.243c-9.559 0-17.308-7.72-17.308-17.243s7.75-17.243 17.308-17.243zm0 1.916c-8.497 0-15.385 6.862-15.385 15.327s6.888 15.327 15.385 15.327 15.385-6.862 15.385-15.327-6.888-15.327-15.385-15.327z"/>
                <ellipse cx="42.308" cy="47.898" fill="#FFF" rx="15.385" ry="15.327"/>
                <ellipse cx="89.423" cy="47.898" fill="#FFF" rx="15.385" ry="15.327"/>
                <path fill="#000" fill-rule="nonzero" d="M108.432 25.166C99.414 10.096 82.89 0 64 0 44.639 0 27.763 10.605 18.907 26.302c8.274-.253 24.69-.39 41.466-.521 1.083-.009 2.543-6.154 3.627-6.162 1.516-.012 2.655 6.113 4.163 6.101 17.078-.134 33.275-.28 40.27-.554z"/>
                <ellipse cx="41.846" cy="47.821" fill="#000" fill-rule="nonzero" rx="4.923" ry="4.905"/>
                <ellipse cx="86.154" cy="47.821" fill="#000" fill-rule="nonzero" rx="4.923" ry="4.905"/>
                <g transform="translate(41.846 66.214)">
                    <mask id="kf6bv6jn5b" fill="#fff">
                        <use xlink:href="#4bah4uf65a"/>
                    </mask>
                    <use fill="#3D2C25" fill-rule="nonzero" transform="matrix(1 0 0 -1 0 22.071)" xlink:href="#4bah4uf65a"/>
                    <path fill="#F47079" fill-rule="nonzero" d="M34.462 29.429c12.235 0 22.153-9.882 22.153-22.072H12.308c0 12.19 9.918 22.072 22.154 22.072z" mask="url(#kf6bv6jn5b)" transform="matrix(1 0 0 -1 0 36.786)"/>
                </g>
            </g>
        </g>
    </g>
</svg>
