<svg xmlns="http://www.w3.org/2000/svg" width="162" height="37" viewBox="0 0 162 37">
    <g fill="none" fill-rule="evenodd">
        <g>
            <g>
                <g>
                    <path fill="#1B5ECE" d="M14.669 0h4.662c4.492 0 6.575.557 8.53 1.603 1.956 1.046 3.49 2.58 4.536 4.536C33.443 8.094 34 10.177 34 14.669v4.662c0 4.492-.557 6.575-1.603 8.53-1.046 1.956-2.58 3.49-4.536 4.536C25.906 33.443 23.823 34 19.331 34H14.67c-4.492 0-6.575-.557-8.53-1.603-1.956-1.046-3.49-2.58-4.536-4.536C.557 25.906 0 23.823 0 19.331V14.67c0-4.492.557-6.575 1.603-8.53 1.046-1.956 2.58-3.49 4.536-4.536C8.094.557 10.177 0 14.669 0z" transform="translate(-107 -45) translate(107 45) translate(0 3)"/>
                    <g fill="#FFF">
                        <path d="M2.343 5.935c0 1.776 1.127 3.057 2.708 3.057.314 0 .617-.056.893-.155-.52-.256-.883-.805-.883-1.437 0-.877.693-1.592 1.549-1.592.455 0 .866.2 1.148.521.016-.127.022-.26.022-.394 0-1.758-1.17-3.034-2.73-3.034-1.58 0-2.707 1.276-2.707 3.034zm-2.339 0C.004 3.001 2.148.682 5.051.682c2.923 0 5.068 2.319 5.068 5.253 0 2.957-2.145 5.27-5.068 5.27-2.946 0-5.047-2.313-5.047-5.27zm19.81 0c0-1.758-1.169-3.034-2.728-3.034-1.581 0-2.713 1.276-2.713 3.034 0 1.776 1.132 3.057 2.713 3.057.314 0 .617-.056.893-.155-.525-.261-.882-.805-.882-1.437 0-.877.693-1.592 1.548-1.592.455 0 .867.2 1.148.521.016-.127.022-.26.022-.394zm2.34 0c0 2.957-2.144 5.27-5.068 5.27-2.946 0-5.046-2.313-5.046-5.27 0-2.934 2.138-5.253 5.046-5.253 2.924 0 5.068 2.319 5.068 5.253zM8.827.651c.176.704.875 1.128 1.56.948.687-.18 1.101-.896.925-1.599L8.827.651zM7.781 12.736h2.339c0 2.95-2.144 5.264-5.068 5.264C2.106 18 0 15.687 0 12.736h2.34c0 1.77 1.13 3.045 2.712 3.045 1.56 0 2.729-1.276 2.729-3.045zm14.373 1.109v1.852c0 .54-.328.9-.897.9-.475 0-.73-.27-.821-.614l.422-.089c.038.189.162.305.4.305.274 0 .444-.174.444-.498v-.204l-.004-.012c-.128.158-.283.266-.57.266-.41 0-.685-.247-.685-.81v-1.096h.453v1.019c0 .347.15.455.376.455.245 0 .43-.166.43-.49v-.984h.452zm-2.973.327c-.306 0-.475.213-.516.433h1.001c-.01-.174-.161-.433-.485-.433zm-.52.788c.018.243.222.483.52.483.263 0 .414-.163.459-.294l.38.12c-.109.309-.38.556-.84.556-.538 0-.953-.425-.953-1.02 0-.582.415-1.014.95-1.014.546 0 .888.405.888.992v.177H18.66zm-2.487-1.115h.373l.064.23c.116-.157.294-.284.572-.284.426 0 .675.25.675.814v1.166h-.452v-1.104c0-.34-.155-.448-.366-.448-.23 0-.414.166-.414.494v1.058h-.452v-1.926zm-.822.96c0-.34-.226-.586-.528-.586-.305 0-.523.247-.523.587 0 .343.218.59.523.59.302 0 .528-.247.528-.59zm-1.503 0c0-.567.414-1.014.975-1.014.566 0 .98.447.98 1.015 0 .57-.414 1.019-.98 1.019-.568 0-.975-.448-.975-1.02zm-3.102-.96h.373l.06.227c.114-.154.313-.281.58-.281.283 0 .434.138.51.289.116-.154.312-.29.602-.29.35 0 .606.213.606.707v1.274h-.452v-1.146c0-.294-.124-.406-.32-.406-.207 0-.365.154-.365.46v1.092h-.452v-1.146c0-.294-.136-.406-.324-.406-.204 0-.366.15-.366.46v1.092h-.452v-1.926z" transform="translate(-107 -45) translate(107 45) translate(0 3) translate(5.923 8)"/>
                    </g>
                </g>
                <text fill="#0D2879" font-family="ModernEraTRIAL-Bold, Modern Era TRIAL" font-size="28" font-weight="bold" letter-spacing="-.3" transform="translate(-107 -45) translate(107 45)">
                    <tspan x="42" y="27">gomoney</tspan>
                </text>
            </g>
        </g>
    </g>
</svg>
