<svg xmlns="http://www.w3.org/2000/svg" width="161" height="34" viewBox="0 0 161 34">
    <g fill="none" fill-rule="evenodd">
        <g>
            <g>
                <g>
                    <path fill="#1B5ECE" d="M14.669 0h4.662c4.492 0 6.575.557 8.53 1.603 1.956 1.046 3.49 2.58 4.536 4.536C33.443 8.094 34 10.177 34 14.669v4.662c0 4.492-.557 6.575-1.603 8.53-1.046 1.956-2.58 3.49-4.536 4.536C25.906 33.443 23.823 34 19.331 34H14.67c-4.492 0-6.575-.557-8.53-1.603-1.956-1.046-3.49-2.58-4.536-4.536C.557 25.906 0 23.823 0 19.331V14.67c0-4.492.557-6.575 1.603-8.53 1.046-1.956 2.58-3.49 4.536-4.536C8.094.557 10.177 0 14.669 0z" transform="translate(-107 -48) translate(107 48)"/>
                    <g fill="#FFF">
                        <path d="M2.343 5.935c0 1.776 1.127 3.057 2.708 3.057.314 0 .617-.056.893-.155-.52-.256-.883-.805-.883-1.437 0-.877.693-1.592 1.549-1.592.455 0 .866.2 1.148.521.016-.127.022-.26.022-.394 0-1.758-1.17-3.034-2.73-3.034-1.58 0-2.707 1.276-2.707 3.034zm-2.339 0C.004 3.001 2.148.682 5.051.682c2.923 0 5.068 2.319 5.068 5.253 0 2.957-2.145 5.27-5.068 5.27-2.946 0-5.047-2.313-5.047-5.27zm19.81 0c0-1.758-1.169-3.034-2.728-3.034-1.581 0-2.713 1.276-2.713 3.034 0 1.776 1.132 3.057 2.713 3.057.314 0 .617-.056.893-.155-.525-.261-.882-.805-.882-1.437 0-.877.693-1.592 1.548-1.592.455 0 .867.2 1.148.521.016-.127.022-.26.022-.394zm2.34 0c0 2.957-2.144 5.27-5.068 5.27-2.946 0-5.046-2.313-5.046-5.27 0-2.934 2.138-5.253 5.046-5.253 2.924 0 5.068 2.319 5.068 5.253zM8.827.651c.176.704.875 1.128 1.56.948.687-.18 1.101-.896.925-1.599L8.827.651zM7.781 12.736h2.339c0 2.95-2.144 5.264-5.068 5.264C2.106 18 0 15.687 0 12.736h2.34c0 1.77 1.13 3.045 2.712 3.045 1.56 0 2.729-1.276 2.729-3.045zm14.373 1.109v1.852c0 .54-.328.9-.897.9-.475 0-.73-.27-.821-.614l.422-.089c.038.189.162.305.4.305.274 0 .444-.174.444-.498v-.204l-.004-.012c-.128.158-.283.266-.57.266-.41 0-.685-.247-.685-.81v-1.096h.453v1.019c0 .347.15.455.376.455.245 0 .43-.166.43-.49v-.984h.452zm-2.973.327c-.306 0-.475.213-.516.433h1.001c-.01-.174-.161-.433-.485-.433zm-.52.788c.018.243.222.483.52.483.263 0 .414-.163.459-.294l.38.12c-.109.309-.38.556-.84.556-.538 0-.953-.425-.953-1.02 0-.582.415-1.014.95-1.014.546 0 .888.405.888.992v.177H18.66zm-2.487-1.115h.373l.064.23c.116-.157.294-.284.572-.284.426 0 .675.25.675.814v1.166h-.452v-1.104c0-.34-.155-.448-.366-.448-.23 0-.414.166-.414.494v1.058h-.452v-1.926zm-.822.96c0-.34-.226-.586-.528-.586-.305 0-.523.247-.523.587 0 .343.218.59.523.59.302 0 .528-.247.528-.59zm-1.503 0c0-.567.414-1.014.975-1.014.566 0 .98.447.98 1.015 0 .57-.414 1.019-.98 1.019-.568 0-.975-.448-.975-1.02zm-3.102-.96h.373l.06.227c.114-.154.313-.281.58-.281.283 0 .434.138.51.289.116-.154.312-.29.602-.29.35 0 .606.213.606.707v1.274h-.452v-1.146c0-.294-.124-.406-.32-.406-.207 0-.365.154-.365.46v1.092h-.452v-1.146c0-.294-.136-.406-.324-.406-.204 0-.366.15-.366.46v1.092h-.452v-1.926z" transform="translate(-107 -48) translate(107 48) translate(5.923 8)"/>
                    </g>
                </g>
                <path fill="#0D2879" fill-rule="nonzero" d="M50.148 29.992c4.536 0 7.14-2.604 7.14-6.524v-13.44h-2.744l-.616 1.68c-.588-.952-1.988-2.072-4.228-2.072-3.836 0-6.636 3.108-6.636 7.14 0 4.06 2.744 7.112 6.664 7.112 2.128 0 3.584-1.036 4.2-2.072v1.708c0 2.352-1.428 3.612-3.78 3.612-1.96 0-2.996-.952-3.332-2.38l-3.136.7c.7 2.576 2.716 4.536 6.468 4.536zm.056-9.128c-2.184 0-3.78-1.596-3.78-4.088 0-2.52 1.568-4.116 3.752-4.116 2.156 0 3.752 1.596 3.752 4.116 0 2.492-1.568 4.088-3.724 4.088zm16.78 3.528c4.2 0 7.28-3.248 7.28-7.392 0-4.116-3.08-7.364-7.28-7.364-4.172 0-7.252 3.248-7.252 7.364 0 4.144 3.024 7.392 7.252 7.392zm0-3.108c-2.268 0-3.892-1.792-3.892-4.284 0-2.464 1.624-4.256 3.892-4.256 2.24 0 3.92 1.792 3.92 4.256 0 2.492-1.68 4.284-3.92 4.284zM80.068 24v-7.924c0-2.24 1.204-3.332 2.716-3.332 1.4 0 2.408.812 2.408 2.94V24h3.36v-7.924c0-2.212 1.176-3.332 2.716-3.332 1.456 0 2.38.812 2.38 2.94V24h3.36v-9.24c0-3.584-1.904-5.124-4.508-5.124-2.156 0-3.612.98-4.48 2.1-.56-1.092-1.68-2.1-3.78-2.1-1.988 0-3.472.924-4.312 2.044l-.448-1.652h-2.772V24h3.36zm26.636.392c4.2 0 7.28-3.248 7.28-7.392 0-4.116-3.08-7.364-7.28-7.364-4.172 0-7.252 3.248-7.252 7.364 0 4.144 3.024 7.392 7.252 7.392zm0-3.108c-2.268 0-3.892-1.792-3.892-4.284 0-2.464 1.624-4.256 3.892-4.256 2.24 0 3.92 1.792 3.92 4.256 0 2.492-1.68 4.284-3.92 4.284zM119.788 24v-7.672c0-2.38 1.372-3.584 3.08-3.584 1.568 0 2.716.784 2.716 3.248V24h3.36v-8.456c0-4.088-1.848-5.908-5.012-5.908-2.072 0-3.388.924-4.256 2.072l-.476-1.68h-2.772V24h3.36zm18.684.392c3.416 0 5.432-1.792 6.244-4.032l-2.828-.868c-.336.952-1.456 2.128-3.416 2.128-2.212 0-3.724-1.736-3.864-3.5h10.444v-1.288c0-4.256-2.548-7.196-6.608-7.196-3.976 0-7.056 3.136-7.056 7.364 0 4.312 3.08 7.392 7.084 7.392zm3.612-8.848h-7.448c.308-1.596 1.568-3.136 3.836-3.136 2.408 0 3.528 1.876 3.612 3.136zM153.6 29.992c4.228 0 6.664-2.604 6.664-6.524v-13.44h-3.36v7.14c0 2.352-1.372 3.556-3.192 3.556-1.68 0-2.8-.784-2.8-3.304v-7.392h-3.36v7.952c0 4.088 2.044 5.88 5.096 5.88 2.128 0 3.276-.784 4.228-1.932l.028.084v1.484c0 2.352-1.26 3.612-3.304 3.612-1.764 0-2.688-.84-2.968-2.212l-3.136.644c.672 2.492 2.576 4.452 6.104 4.452z" transform="translate(-107 -48) translate(107 48)"/>
            </g>
        </g>
    </g>
</svg>
